<svg id="visual" viewBox="0 0 900 600" width="900" height="600" xmlns="http://www.w3.org/2000/svg" xmlns:xlink="http://www.w3.org/1999/xlink" version="1.1"><rect x="0" y="0" width="900" height="600" fill="#301AAD"></rect><path d="M0 357L113 388L225 382L338 384L450 366L563 373L675 447L788 440L900 443L900 601L788 601L675 601L563 601L450 601L338 601L225 601L113 601L0 601Z" fill="#0632b8"></path><path d="M0 477L113 413L225 421L338 407L450 424L563 407L675 475L788 424L900 446L900 601L788 601L675 601L563 601L450 601L338 601L225 601L113 601L0 601Z" fill="#005fcb"></path><path d="M0 459L113 486L225 444L338 438L450 491L563 457L675 441L788 460L900 503L900 601L788 601L675 601L563 601L450 601L338 601L225 601L113 601L0 601Z" fill="#0084d1"></path><path d="M0 523L113 533L225 497L338 509L450 489L563 497L675 487L788 486L900 521L900 601L788 601L675 601L563 601L450 601L338 601L225 601L113 601L0 601Z" fill="#00a2cb"></path><path d="M0 525L113 545L225 558L338 545L450 556L563 550L675 562L788 558L900 530L900 601L788 601L675 601L563 601L450 601L338 601L225 601L113 601L0 601Z" fill="#06b8af"></path></svg>